{"title":"Teen Wolf S04E11 A Promise to the Dead 1080P WEB-DL","uid":10961377,"size":1661839380,"categoryP":"video","categoryS":"hd___tv_shows","magnet":"?xt=urn:btih:0ec9f92b2ed9e49c08ce6d0428aaac63e20742ea&amp;dn=Teen+Wolf+S04E11+A+Promise+to+the+Dead+1080P+WEB-DL&amp;tr=udp%3A%2F%2Ftracker.openbittorrent.com%3A80&amp;tr=udp%3A%2F%2Fopen.demonii.com%3A1337&amp;tr=udp%3A%2F%2Ftracker.coppersurfer.tk%3A6969&amp;tr=udp%3A%2F%2Fexodus.desync.com%3A6969","seeders":2,"leechers":1,"uploader":"jmanwf","files":-1,"time":1409725477,"description":"Scott has to try and deal with an old enemy.\n\n\nFormat : MPEG-4\nFormat profile : Base Media / Version 2\nCodec ID : mp42\nFile size : 1.55 GiB\nDuration : 41mn 56s\nOverall bit rate : 5 284 Kbps\nMovie name : A Promise to the Dead\nAlbum : Teen Wolf, Season 4\nPart/Position : 1\nPart/Total : 1\nTrack name/Position : 11\nTrack name/Total : 13\nPerformer : Teen Wolf\nGenre : Sci-Fi &amp; Fantasy\nagainst an old enemy\nRecorded date : UTC 2014-09-01 07:00:00\nEncoded date : UTC 2014-09-02 11:03:04\nTagged date : UTC 2014-09-02 11:05:43\n\n\nVideo\nID : 2\nFormat : AVC\nFormat/Info : Advanced Video Codec\nFormat profile : &lt;a class=&quot;__cf_email__&quot; href=&quot;/cdn-cgi/l/email-protection&quot; data-cfemail=&quot;82caebe5eac2ceb6acb2&quot;&gt;[email&amp;#160;protected]&lt;/a&gt;&lt;script cf-hash='f9e31' type=&quot;text/javascript&quot;&gt;\n/* &lt;![CDATA[ */!function(){try{var t=&quot;currentScript&quot;in document?document.currentScript:function(){for(var t=document.getElementsByTagName(&quot;script&quot;),e=t.length;e--;)if(t[e].getAttribute(&quot;cf-hash&quot;))return t[e]}();if(t&amp;&amp;t.previousSibling){var e,r,n,i,c=t.previousSibling,a=c.getAttribute(&quot;data-cfemail&quot;);if(a){for(e=&quot;&quot;,r=parseInt(a.substr(0,2),16),n=2;a.length-n;n+=2)i=parseInt(a.substr(n,2),16)^r,e+=String.fromCharCode(i);e=document.createTextNode(e),c.parentNode.replaceChild(e,c)}}}catch(u){}}();/* ]]&gt; */&lt;/script&gt;\nFormat settings, CABAC : Yes\nFormat settings, ReFrames : 4 frames\nCodec ID : avc1\nCodec ID/Info : Advanced Video Coding\nDuration : 41mn 55s\nBit rate : 4 897 Kbps\nWidth : 1 916 pixels\nHeight : 1 076 pixels\nDisplay aspect ratio : 16:9\nFrame rate : 23.976 fps\nColor space : YUV\nChroma subsampling : 4:2:0\nBit depth : 8 bits\nScan type : Progressive\nBits/(Pixel*Frame) : 0.099\nStream size : 1.43 GiB (93%)\nLanguage : English\nEncoded date : UTC 2014-09-02 11:04:37\nTagged date : UTC 2014-09-02 11:05:38\nColor primaries : BT.709\nTransfer characteristics : BT.709\nMatrix coefficients : BT.709\n\nAudio\nID : 1\nFormat : AC-3\nFormat/Info : Audio Coding 3\nMode extension : CM (complete main)\nFormat settings, Endianness : Big\nCodec ID : ac-3\nDuration : 41mn 56s\nBit rate mode : Constant\nBit rate : 384 Kbps\nChannel(s) : 6 channels\nChannel positions : Front: L C R, Side: L R, LFE\nSampling rate : 48.0 KHz\nBit depth : 16 bits\nCompression mode : Lossy\nStream size : 115 MiB (7%)\nLanguage : English\nEncoded date : UTC 2014-09-02 11:03:06\nTagged date : UTC 2014-09-02 11:04:36","torrent":{"xt":"urn:btih:0ec9f92b2ed9e49c08ce6d0428aaac63e20742ea","amp;dn":"Teen+Wolf+S04E11+A+Promise+to+the+Dead+1080P+WEB-DL","amp;tr":["udp%3A%2F%2Ftracker.openbittorrent.com%3A80","udp%3A%2F%2Fopen.demonii.com%3A1337","udp%3A%2F%2Ftracker.coppersurfer.tk%3A6969","udp%3A%2F%2Fexodus.desync.com%3A6969"],"infoHash":"0ec9f92b2ed9e49c08ce6d0428aaac63e20742ea","infoHashBuffer":{"type":"Buffer","data":[14,201,249,43,46,217,228,156,8,206,109,4,40,170,172,99,226,7,66,234]},"announce":[],"urlList":[]}}